<svg width="953" height="1094" xmlns="http://www.w3.org/2000/svg"><g fill="none" fill-rule="evenodd"><path d="M151.522 209.808c11.98-5.695 25.608 3.33 25.608 16.568v188.245c0 16.793-10.43 31.746-25.608 38.964C73.899 490.46 25.616 542.213 25.616 599.52V355.733c0-57.314 48.283-109.067 125.906-145.925zM740.766 240.522c-13.52-3.963-26.657 6.66-26.657 20.698v273.633c0 16.21 11.104 30.28 26.657 34.843 102.13 29.973 170.557 84.922 170.557 147.707V388.237c.025-62.801-68.426-117.734-170.557-147.715z" fill="#C9E2F4" opacity=".6"/><path d="M335.5 275.914c-73.966 0-142.343 11.773-197.84 31.713-12.012 4.313-24.991-4.096-24.991-16.851v-93.998c0-16.218 9.697-31.163 24.991-36.633 55.497-19.94 123.874-31.712 197.84-31.712a671.08 671.08 0 0181.021 4.829c15.328 1.864 26.599 15.144 26.599 30.572v93.997c0 14.087-12.612 24.627-26.599 22.929a669.38 669.38 0 00-81.022-4.846z" fill="#C9E2F4" opacity=".6"/><g opacity=".71"><path d="M241.516 196.637c-8.073 1.199-12.071 1.898-19.852 3.372v-3.164c7.74-1.449 11.738-2.156 19.81-3.33l.042 3.122zM260.667 194.264c-5.165.5-7.755.833-12.887 1.49l-.042-3.147c5.14-.69 7.731-.99 12.904-1.498.008 1.257.017 1.89.025 3.155zM286.566 192.932c-7.772 0-11.712.183-19.576.783v-3.156c7.872-.608 11.82-.79 19.593-.79l-.017 3.163zM271.488 203.414c-13.72.833-36.162 4.163-49.69 6.66l-.042-3.146c13.57-2.556 35.97-5.828 49.707-6.661.009 1.215.017 1.882.025 3.147zM286.566 202.956c-3.507 0-5.264 0-8.796.158v-3.163c3.532-.125 5.298-.159 8.813-.159-.017 1.266-.017 1.899-.017 3.164zM254.578 214.862a331.107 331.107 0 00-32.914 5.195v-3.164c13.004-2.564 19.627-3.68 32.872-5.178l.042 3.147zM286.566 212.98c-8.28-.06-16.56.323-24.8 1.15v-3.156a229.865 229.865 0 0124.8-1.166v3.172zM236.742 227.292c-6.023.991-9.038 1.549-15.078 2.773V226.9c6.015-1.207 9.022-1.765 15.045-2.748.008 1.266.017 1.89.033 3.14zM274.97 223.254a261.177 261.177 0 00-31.039 2.94l-.041-3.14a261.46 261.46 0 0131.072-2.964c0 1.266.008 1.899.008 3.164zM278.96 179.877c-23.191.783-35.653 2.99-57.296 6.952v-5.278c21.468-3.872 34.072-6.145 57.288-6.944 0 2.115 0 3.164.009 5.27zM151.514 213.538c-6.823-2.955-10.247-4.246-17.02-6.785-4.29 8.45-6.189 16.826-5.889 24.186 8.53-4.63 12.779-6.952 21.31-11.298a21.313 21.313 0 011.599-6.103z" fill="#303D8B"/><path d="M150.48 225.777c-8.446 4.23-12.653 6.477-21.125 11.032 1.832 8.05 6.839 14.253 14.603 17.325 1.226.48 2.484.873 3.765 1.174 3.274-9.158 4.907-13.804 8.206-23.112a10.442 10.442 0 01-5.448-6.419z" fill="#FEB701"/><path d="M174.864 200.359a11.732 11.732 0 015.931 7.493 117.428 117.428 0 0121.95-3.589c-1.332-10.174-6.514-19.748-15.186-24.727a24.847 24.847 0 00-2.84-1.39c-4.04 8.608-6.065 13.096-10.08 22.096l.225.117z" fill="#303D8B"/><path d="M181.278 214.296a21.031 21.031 0 01-2.924 8.442c-3.99 6.66-10.83 10.549-16.902 10.624-3.274 9.158-4.89 13.72-8.13 22.754 14.994.832 32.355-7.735 42.485-23.229a42.903 42.903 0 007.239-22.13 124.646 124.646 0 00-21.768 3.539z" fill="#FEB701"/><path d="M168.924 199.235c4.049-9.2 6.09-13.796 10.18-22.663-14.162-2.223-30.556 8.126-40.819 23.737 6.79 2.547 10.221 3.854 17.06 6.877 3.766-4.63 8.764-7.618 13.58-7.951z" fill="#0A1658"/></g><g><path d="M880.134 895.015S354.15 1169.423 526.483 679.537" stroke="#1F2055" stroke-width="2" stroke-linecap="round" stroke-dasharray="8"/><path fill="#1F2055" d="M850.694 900.926l11.521 12.34 87.77-36.592z"/><path fill="#2F3E8A" d="M854.793 860.197l-8.672 13.071 5.864 12.805-13.153 2.24-11.613 25.493 125.59-37.982z"/><path fill="#1F2055" d="M851.985 886.073l-5.864-12.805 68.026 3.18z"/><path d="M91.91 125.768s479.932-33.303 385.698 165.34C383.374 489.753 49.149 553.22 313.324 619.043" stroke="#1F2055" stroke-width="2" stroke-linecap="round" stroke-dasharray="8"/><path fill="#1F2055" d="M113.394 137.366l-12.72 13.63-96.959-40.414z"/><path fill="#2F3E8A" d="M108.87 92.374l9.58 14.437-6.472 14.153 14.52 2.465 12.837 28.166L.608 109.64z"/><path fill="#1F2055" d="M111.978 120.964l6.472-14.153-75.14 3.513z"/><path d="M375.169.325h86.72c6.04 0 10.937 4.894 10.937 10.931v76.755a3.13 3.13 0 01-5.348 2.207l-19.801-19.79a9.291 9.291 0 00-6.565-2.715H375.17c-6.139.005-11.12-4.963-11.13-11.098V11.44c0-2.95 1.173-5.778 3.26-7.863a11.124 11.124 0 017.87-3.252z" fill="#2F3E8A"/><path d="M385.698 20.323h61.895a4.006 4.006 0 013.999 3.996 4.014 4.014 0 01-3.999 4.005h-61.895a4.014 4.014 0 01-3.998-4.005 4.006 4.006 0 013.998-3.996zM409.94 43.294h37.612a4.014 4.014 0 013.998 4.004 4.006 4.006 0 01-3.998 3.997H409.94a4.014 4.014 0 01-4.007-3.997c.005-2.21 1.796-4 4.007-4.004z" fill="#C9E2F4"/></g><g><path d="M487.063 546.709c-60.737 38.456-181.92 119.057-173.273 144.917 11.463 34.377 17.16 94.747 69.884 110.732-19.901-16.984-36.72-45.891-40.777-95.13-1.266-15.327 115.468-64.25 143.4-75.764a1715.85 1715.85 0 006.047-17.192c-.191-15.653-1.166-41.67-5.281-67.563z" fill="#0A1658"/><path d="M383.65 802.325c-52.724-15.952-58.422-76.322-69.885-110.732-8.622-25.81 112.56-106.461 173.273-144.918-7.764-48.913-26.707-97.369-72.475-74.64 0 0-206.986 168.13-167 249.822 39.986 81.692 167 139.28 167 139.28s16.953 71.144 27.782 84.89c11.796-27.092 14.995-99.817 15.645-119.341-13.979-.183-47.059-1.074-74.34-24.361z" fill="#303D8B"/><path d="M446.36 948.15c9.997-4.696 22.493-118.417 18.236-121.064-.567-.35-2.924-.35-6.615-.4-.658 19.524-3.848 92.249-15.644 119.34 1.474 1.866 2.832 2.69 4.024 2.124z" fill="#C9E2F4"/><path d="M418.437 876.474l7.539-3.547M421.952 889.678l6.282-2.173" stroke="#C9E2F3" stroke-width="2" stroke-linecap="round"/><path d="M718.232 367.897c-34.896-70.91-101.731-117.534-101.731-117.534s-46.117 33.677-67.701 23.986c-21.584-9.69-42.485-28.232-39.811-38.356a.117.117 0 000-.05c-11.288-.059-21.193.516-28.24 1.973-32.64 6.76-86.145 64.65-112.32 97.852-6.289 7.993-15.502 14.628-26.049 20.157a197.011 197.011 0 0111.946 30.755c54.698-25.235 91.743-95.571 91.743-95.571s-21.46 47.307-22.25 55.532c-.792 8.226 0 45.55 0 45.55l-9.164 79.877s47.042 76.447 101.723 77.63c14.878.316 29.764 1.482 43.776 2.497 0 0-45.384-79.294-60.329-89.876-14.945-10.582-57.971-72.026-57.971-72.026s140.342 55.574 154.454 41.862c14.112-13.712 43.127-91.683 43.127-91.683s-10.588 39.572-13.72 60.728c-3.133 21.156 18.226 48.29 18.226 48.29 25.675 14.86 41.586 33.302 51.09 52.643 0 0 34.655-29.498 61.846-32.113-6.406-29.93-19.593-63.392-38.645-102.123z" fill="#FFF"/><path d="M625.714 401.2c3.133-21.156 13.72-60.728 13.72-60.728s-29.014 77.97-43.126 91.683c-14.112 13.712-154.454-41.862-154.454-41.862s43.026 61.452 57.971 72.026c14.945 10.574 60.287 89.868 60.287 89.868 37.487 2.714 68.635 4.346 76.032-14.154 5.298-46.699 7.797-88.544 7.797-88.544s-21.367-27.133-18.227-48.29zM548.8 274.35c21.584 9.69 67.701-23.987 67.701-23.987-7.356-5.578-66.535-14.212-107.462-14.42a.117.117 0 010 .05c-2.7 10.124 18.177 28.665 39.76 38.356zM423.818 346.641c.833-8.225 22.251-55.532 22.251-55.532s-37.045 70.336-91.726 95.57c2.732 9.742 4.348 19.883 2.424 27.251 44.151-5.953 67.051-21.738 67.051-21.738s-.783-37.316 0-45.55z" fill="#C9E2F4"/><g><path d="M603.172 158.48s18.619-13.121 16.853-30.755c-.258-2.614-2.683-5.886-6.606-9.292-.042.05-42.402 55.133-61.645 59.246a49.108 49.108 0 01-31.123-3.571c3.382 21.28 12.021 46.032 33.805 48.822 0 0 21.9 2.356 31.24-12.34 0 0-6.29 18.218-16.337 21.848a62.21 62.21 0 01-19.293 3.555 16.5 16.5 0 01-2.124 3.588c-3.332 3.921-16.661 39.963 16.07 38.007 32.73-1.957 52.53-27.225 52.53-27.225s-16.119-65.632-13.37-91.883z" fill="#FF7977"/><path d="M551.815 177.68c19.202-4.114 61.562-59.197 61.645-59.247-22.492-19.557-94.666-43.701-94.875 24.278a177.73 177.73 0 002.066 31.397 49.108 49.108 0 0031.164 3.571zM569.318 232.438c10.046-3.63 16.335-21.847 16.335-21.847-9.338 14.695-31.239 12.339-31.239 12.339a90.032 90.032 0 01-4.39 13.063 62.21 62.21 0 0019.294-3.555z" fill="#F45658"/><path d="M625.515 160.054c1.374 36.433 29.89 54.95 59.879 35.26 29.99-19.691 53.223-.592 111.144-.883 57.921-.292 92.776-41.38 92.776-41.38 1.583-4.828 2.166-9.09 1.8-12.396-1.967-17.634-55.281 24.686-38.812-2.398 16.47-27.084 16.07-57.939-29.406-72.833-45.476-14.895-84.28 51.727-90.944 38.847-6.664-12.88-17.644 4.255-33.713 30.114-16.07 25.86-30.58-12.147-36.07-31.346-5.49-19.199-36.654-23.503-36.654-23.503s-12.346-7.835-43.902-13.322c-31.555-5.486-59.587 18.808-68.218 33.303-8.63 14.495 8.24 26.443 8.24 26.443 18.226 15.427 70.116 16.901 70.116 16.901 2.874-9.241 21.476-23.687 26.258-17.068 0 0 6.14-2.181 7.506 34.26z" fill="#303D8B"/><path d="M619.1 131.397c-1.183 17.484-15.928 27.083-15.928 27.083-4.898 57.398 18.619 95.013 46.06 105.978 27.44 10.965 46.258-24.677 93.691-4.695 47.434 19.981 7.448-29.382 66.252-43.094 47.775-11.14 73.308-42.711 80.139-63.617 0 0-34.855 41.087-92.776 41.379-57.921.291-81.155-18.808-111.144.882-29.99 19.69-58.505 1.174-59.88-35.26-1.374-36.433-7.497-34.26-7.497-34.26.842 1.166 1.258 2.99 1.083 5.604z" fill="#0A1658"/></g><g><path d="M580.322 122.48l-53.681-6.752c-5.323-.675-13.329 5.744-13.329 5.744l-30.031 20.931 71.208 29.14 31.423-22.812c.65-.395 1.265-.843 1.84-1.34l.15-.109a14.193 14.193 0 004.782-8.95c.938-7.781-4.583-14.86-12.362-15.852z" fill="#0A1658"/><path d="M493.441 139.817l53.694 6.722c7.81.978 13.348 8.102 12.37 15.912v.002c-.979 7.811-8.104 13.35-15.916 12.372l-53.693-6.722c-7.81-.978-13.349-8.102-12.371-15.912v-.002c.98-7.811 8.105-13.35 15.916-12.372z" fill="#303D8B"/><path d="M559.171 119.832s9.505-37.649 66.344-40.296a25.507 25.507 0 00-17.253-7.044c-11.07-.3-56.497 12.922-64.277 45.442l15.186 1.898z" fill="#0A1658"/></g><g><path d="M695.032 502.133c25.65 52.194 4.565 110.94 2.424 123.37-2.94 17.043-25.583 43.494-27.64 51.428-2.058 7.935 10.88-2.939 10.88-2.939s-2.65 22.921-4.116 31.147c-1.466 8.226 2.94 21.747 7.056 22.038 4.115.291 23.517-15.869 24.4-22.621.883-6.752 8.23-61.22 8.23-61.22s31.756-58.77 41.952-105.003c4.624-20.99 3.982-43.435-1.341-68.313-27.19 2.615-61.845 32.113-61.845 32.113zM342.38 355.925c-33.263 17.484-79.814 23.795-90.085 26.467-13.52 3.53-52.14 4.704-68.21 10.19-16.069 5.487-25.482 15.279-24.108 16.844 1.375 1.565 29.398-6.852 29.398-6.852s-5.49 19.782 12.354 21.938c17.844 2.156 40.57-19 40.57-19 78.397-3.746 112.027-18.832 112.027-18.832a197.011 197.011 0 00-11.946-30.755z" fill="#FF7977"/><path d="M356.767 413.93c1.924-7.368.308-17.484-2.424-27.25 0 0-33.63 15.086-112.028 18.833 47.05 11.989 85.354 12.338 114.452 8.417z" fill="#F45658"/></g><g><path d="M636.144 538.05c-7.397 18.475-38.536 16.843-76.032 14.154 0 0 47.367 76.263 6.798 145.608-40.57 69.345-125.431 96.079-183.27 221.115 78.448-111.19 217.75-232.58 232.853-274.6 8.697-24.186 15.178-66.955 19.651-106.277z" fill="#0A1658"/><path d="M560.112 552.187c-14.011-1.007-28.898-2.173-43.776-2.498-54.68-1.174-101.723-77.62-101.723-77.62s63.503 111.123 37.046 166.364c-19.693 41.113-87.145 207.094-122.632 297.228a5.964 5.964 0 00-5.107 4.247l-1.666 5.736a5.975 5.975 0 00.833 5.129l31.047 15.16a5.99 5.99 0 004.874-2.497l4.273-6.036a5.95 5.95 0 00-.2-7.152c6.198-10.307 13.096-20.773 20.551-31.338 57.83-125.036 142.684-151.77 183.27-221.115 40.586-69.344-6.79-145.6-6.79-145.608z" fill="#303D8B"/><path d="M307.001 993.6l31.164 8.034a246.913 246.913 0 0115.986-35.692l-31.047-15.144c-8.956 22.912-14.937 38.73-16.103 42.802z" fill="#FF7977"/><path d="M333.758 938.16l25.875 10.165M354.151 935.811s36.346-77.579 95.742-142.81c59.396-65.233 157.595-154.277 156.412-240.814" stroke="#C9E2F3" stroke-width="2" stroke-linecap="round"/><path d="M338.165 1001.634l-31.164-8.034c-4.673 16.352-56.847 73.924-71.242 93.248 16.844-6.594 86.812-34.452 100.798-47.115 1.483-13.28 1.608-38.099 1.608-38.099z" fill="#303D8B"/><path d="M232.127 1093.117c1.566 4.313 100.357-39.18 103.097-46.232a33.195 33.195 0 001.325-7.11c-13.978 12.663-83.946 40.52-100.798 47.115-2.5 3.372-3.857 5.586-3.624 6.227z" fill="#C9E2F4"/><path d="M291.356 1018.51l8.098 4.671M286.966 1024.222l8.439 4.446M282.751 1029.559l6.606 3.955" stroke="#C9E2F3" stroke-width="2" stroke-linecap="round"/></g></g><g><path d="M294.105 573.642c0-16.027-11.429-29.756-27.073-33.303-142.4-31.904-241.416-102.58-241.416-184.647v243.86c0 82.075 99.015 152.752 241.416 184.664 14.045 3.148 27.073-7.876 27.073-22.27V573.641z" fill="#C9E2F4" opacity=".6"/><g opacity=".67" transform="translate(36.654 443.761)"><path d="M19.402 56.415a2.5 2.5 0 01-1.667-.666 141.19 141.19 0 01-16.71-18.658 2.447 2.447 0 011.68-3.936 2.45 2.45 0 012.26 1.03 135.335 135.335 0 0016.136 18 2.447 2.447 0 01-1.666 4.23h-.033zM42.852 75.323a2.433 2.433 0 01-1.4-.45c-4.998-3.497-9.796-7.11-14.162-10.74a2.448 2.448 0 01.7-4.183 2.451 2.451 0 012.416.403c4.307 3.547 8.98 7.077 13.887 10.507a2.447 2.447 0 01-1.408 4.463h-.033zM27.699 77.92a2.45 2.45 0 01-1.575-.574A152.599 152.599 0 011.008 51.245a2.447 2.447 0 011.68-3.937 2.45 2.45 0 012.26 1.031 147.485 147.485 0 0024.317 25.252 2.447 2.447 0 01-1.566 4.33zM42.852 89.468c-.501.001-.99-.153-1.4-.441a241.384 241.384 0 01-6.49-4.696 2.449 2.449 0 112.95-3.913c2.055 1.538 4.17 3.07 6.348 4.596a2.447 2.447 0 01-1.408 4.454zM9.48 74.457a2.425 2.425 0 01-1.841-.833A133.636 133.636 0 01.975 65.39a2.45 2.45 0 01.52-3.426 2.453 2.453 0 013.428.52c1.941 2.64 4.09 5.304 6.381 7.91a2.455 2.455 0 01-1.849 4.063h.025zM42.852 103.622c-.501 0-.99-.153-1.4-.441a205.505 205.505 0 01-25.516-20.815 2.448 2.448 0 011.04-4.113 2.452 2.452 0 012.376.6 201.157 201.157 0 0024.908 20.34 2.447 2.447 0 01-1.408 4.454v-.025zM21.51 100.825a2.408 2.408 0 01-1.667-.642A143.382 143.382 0 01.991 79.544a2.447 2.447 0 011.68-3.936 2.45 2.45 0 012.26 1.03 139.193 139.193 0 0018.228 19.94 2.447 2.447 0 01-1.667 4.255l.017-.008zM36.587 113.23a2.433 2.433 0 01-1.466-.5 218.049 218.049 0 01-6.273-4.862 2.447 2.447 0 01-.37-3.443 2.45 2.45 0 013.444-.37 210 210 0 006.14 4.762 2.447 2.447 0 01-1.475 4.413zM42.852 177.338a2.45 2.45 0 01-1.575-.575C24.058 162.235 10.455 146.916.883 131.238a2.447 2.447 0 011.986-3.863 2.45 2.45 0 012.18 1.307c9.304 15.236 22.55 30.156 39.369 44.335a2.447 2.447 0 01-1.583 4.32h.017zM17.71 173.292a1.192 1.192 0 01-.933-.433 159.367 159.367 0 01-14.844-20.323 1.223 1.223 0 112.09-1.274 156.678 156.678 0 0014.62 19.981 1.232 1.232 0 01-.141 1.732 1.225 1.225 0 01-.792.317zM42.86 198.06c-.292 0-.573-.106-.791-.3-5.99-5.044-11.613-10.265-16.728-15.518a1.223 1.223 0 011.758-1.665c5.056 5.195 10.621 10.365 16.544 15.36a1.223 1.223 0 01-.783 2.165v-.041zM23.259 194.14a1.225 1.225 0 01-.892-.392 166.092 166.092 0 01-20.434-26.584 1.223 1.223 0 01.4-1.665 1.242 1.242 0 011.666.408 164.22 164.22 0 0020.16 26.167 1.232 1.232 0 01-.9 2.065zM42.86 212.68c-.29.003-.57-.097-.791-.282-4.407-3.714-8.622-7.494-12.538-11.34a1.215 1.215 0 010-1.732 1.233 1.233 0 011.733 0 237.923 237.923 0 0012.404 11.223 1.215 1.215 0 01.15 1.724c-.243.27-.594.42-.958.408zM14.712 198.935c-.373 0-.725-.169-.958-.458a156.041 156.041 0 01-11.821-16.652 1.223 1.223 0 112.09-1.273 151.978 151.978 0 0011.663 16.418 1.232 1.232 0 01-.95 1.998l-.024-.033zM34.513 219.949c-.309 0-.606-.115-.833-.325a192.414 192.414 0 01-11.663-11.656 1.223 1.223 0 011.791-1.665c3.59 3.872 7.498 7.751 11.563 11.523a1.223 1.223 0 01-.833 2.123h-.025z" fill="#0A1658"/><path d="M99.057 264.875a1.934 1.934 0 01-.833-.217 328.847 328.847 0 01-42.194-26.4 1.84 1.84 0 112.2-2.948 324.206 324.206 0 0041.685 26.118 1.84 1.84 0 01-.833 3.463l-.025-.016zM152.505 288.653a1.892 1.892 0 01-.641-.108c-11.721-4.371-23.092-9.092-33.814-14.054a1.84 1.84 0 111.55-3.33c10.63 4.92 21.917 9.607 33.546 13.937a1.84 1.84 0 01-.641 3.555zM203.829 304.988c-.161.002-.321-.02-.475-.067a597.252 597.252 0 01-33.772-10.132 1.835 1.835 0 111.167-3.48 603.088 603.088 0 0033.563 10.066 1.84 1.84 0 01-.483 3.613zM132.762 268.987c-.247 0-.49-.051-.717-.15-29.223-12.338-54.805-26.642-76.048-42.46a1.84 1.84 0 012.2-2.948c21 15.636 46.325 29.756 75.273 41.987a1.84 1.84 0 01-.708 3.53v.041zM222.28 297.811a1.85 1.85 0 01-.424-.05 595.36 595.36 0 01-68.526-20.514 1.834 1.834 0 111.274-3.439 592.952 592.952 0 0068.101 20.381 1.832 1.832 0 01-.424 3.622zM78.747 229.598a1.917 1.917 0 01-.966-.266c-7.664-4.737-14.995-9.691-21.784-14.745a1.84 1.84 0 112.2-2.947c6.664 4.995 13.936 9.89 21.517 14.562a1.831 1.831 0 01-.967 3.396zM179.637 274.283a1.85 1.85 0 01-.558-.084c-31.047-9.757-59.363-21.522-84.137-34.968a1.84 1.84 0 011.75-3.23c24.599 13.321 52.697 24.977 83.52 34.693a1.84 1.84 0 01-.55 3.589h-.025zM222.28 285.98a1.85 1.85 0 01-.424-.05c-7.673-1.823-15.287-3.771-22.609-5.828a1.84 1.84 0 01-.42-3.372c.427-.241.932-.301 1.403-.166a627.01 627.01 0 0022.492 5.761 1.832 1.832 0 01-.425 3.622l-.016.033zM104.713 232.288a1.884 1.884 0 01-.833-.2 335.208 335.208 0 01-47.883-29.357 1.84 1.84 0 012.2-2.947 331.334 331.334 0 0047.358 29.032 1.84 1.84 0 01-.833 3.472h-.009z" opacity=".82" fill="#FFF"/><path d="M151.614 252.827a1.9 1.9 0 01-.642-.116 495.869 495.869 0 01-30.914-12.797 1.84 1.84 0 011.524-3.33c9.764 4.462 20.085 8.733 30.681 12.696a1.84 1.84 0 01-.65 3.564v-.017z" fill="#FFF"/><path d="M222.28 274.141a1.85 1.85 0 01-.424-.05c-18.244-4.32-36.004-9.366-52.773-14.986a1.835 1.835 0 111.166-3.48c16.66 5.578 34.313 10.59 52.481 14.886a1.832 1.832 0 01-.424 3.622l-.025.008z" opacity=".82" fill="#FFF"/><path fill="#FEB701" d="M214.892 145.808l-57.305 30.39-25.941-33.237-31.406 30.372-20.426-30.93-18.069 20.581v11.14l17.244-19.64 20.001 30.28 31.89-30.838 24.707 31.646 59.305-31.446z"/><path fill="#FEB701" d="M63.47 187.32l-1.725-1.223v-23.113h1.724zM99.848 209.284l-1.732-.924v-25.785h1.732zM131.696 224.511l-1.725-.915v-71.019h1.725zM156.379 234.302l-1.725-.707v-51.686h1.725zM214.892 252.003l-1.725-.4v-97.477h1.725zM79.864 197.877l-1.733-1.223v-43.619h1.733z"/><path d="M162.252 179.969c0 4.904-3.016 8.875-6.74 8.875-3.723 0-6.739-3.971-6.739-8.875s3.016-8.875 6.74-8.875c3.723 0 6.739 3.971 6.739 8.875zM220.823 151.22c0 4.896-3.016 8.875-6.74 8.875-3.723 0-6.739-3.98-6.739-8.875s3.024-8.85 6.748-8.85c3.723 0 6.73 3.938 6.73 8.85zM137.86 149.721c0 4.904-3.015 8.876-6.74 8.876-3.723 0-6.739-3.972-6.739-8.876 0-4.903 3.016-8.883 6.74-8.883s6.74 3.98 6.74 8.883zM105.696 176.963c0 4.904-3.015 8.875-6.739 8.875-3.724 0-6.73-3.97-6.73-8.875 0-4.904 3.015-8.875 6.73-8.875 3.715 0 6.74 3.971 6.74 8.875zM86.253 149.863c0 4.904-3.024 8.875-6.74 8.875-3.715 0-6.738-3.971-6.738-8.875s3.015-8.875 6.739-8.875c3.724 0 6.74 3.98 6.74 8.875z" fill="#FEB701"/><ellipse fill="#FEB701" cx="62.203" cy="166.406" rx="6.739" ry="8.875"/><path d="M73.89 65.274a6.335 6.335 0 00-2.84-5.304C41.944 40.996 20.285 24.17 4.507 1.007a1.025 1.025 0 00-1.883.558v7.593a11.56 11.56 0 001.883 6.361c17.31 26.11 58.987 52.227 66.243 56.915a1.984 1.984 0 003.14-1.482v-5.678zM220.556 123.22a4.421 4.421 0 00-3.332-4.162c-48.2-11.881-88.302-26.834-121.2-44.368a2.109 2.109 0 00-3.156 1.765v5.52a5.636 5.636 0 002.907 4.996c34.663 18.424 75.882 33.61 121.824 44.75a2.692 2.692 0 003.165-2.914c-.008-1.773-.141-3.788-.208-5.586z" fill="#FFF"/></g><g opacity=".74"><g opacity=".92" fill="#FFF"><path d="M484.064 855.993c-9.68.666-14.553.882-24.35 1.107.059-1.332.092-2.007.158-3.33 9.789-.225 14.662-.433 24.325-1.091-.058 1.324-.075 1.981-.133 3.314zM505.898 854.02c-6.114.69-9.163.982-15.37 1.49.05-1.332.075-1.999.117-3.33 6.173-.5 9.247-.833 15.336-1.483-.025 1.333-.05 1.999-.083 3.322zM526.483 851.23c-5.665.9-8.514 1.307-14.245 2.023 0-1.323 0-1.99.066-3.33 5.706-.724 8.547-1.124 14.162-2.023l.017 3.33zM465.379 867.49c-2.458.092-3.69.125-6.14.184.059-1.333.092-1.999.15-3.33 2.458-.059 3.682-.1 6.132-.184-.059 1.324-.084 1.998-.142 3.33zM489.104 866.117c-6.856.55-10.288.766-17.186 1.099.059-1.34.084-1.999.142-3.33 6.89-.325 10.33-.542 17.169-1.091-.05 1.323-.067 1.99-.125 3.322zM509.88 864.019c-5.698.69-8.555.999-14.287 1.523.042-1.324.067-1.99.109-3.33 5.723-.533 8.572-.833 14.253-1.524-.033 1.349-.042 2.007-.075 3.33zM479.94 877.281c-8.463.558-12.695.75-21.175.983.058-1.34.083-2.007.15-3.33 8.48-.225 12.712-.417 21.167-.966-.058 1.324-.092 1.981-.142 3.313zM499.825 875.616c-5.331.55-8.005.783-13.328 1.2.058-1.333.083-1.999.133-3.331 5.331-.416 7.997-.658 13.328-1.199-.083 1.332-.133 1.998-.133 3.33zM526.483 872.211c-8.056 1.232-12.088 1.773-20.185 2.698l.083-3.33c8.064-.925 12.088-1.466 20.102-2.698v3.33zM468.894 888.43c-4.24.208-6.364.291-10.613.408.059-1.333.092-2.007.15-3.33 4.24-.117 6.365-.2 10.605-.4-.033 1.323-.083 1.99-.142 3.322zM510.655 884.858c-14.112 1.723-21.16 2.364-35.238 3.214.058-1.333.083-1.99.142-3.33 14.07-.833 21.1-1.483 35.162-3.206a55.242 55.242 0 01-.066 3.322zM526.483 861.712c-4.016.625-6.032.924-10.08 1.466 0-1.324 0-1.99.05-3.33a343.46 343.46 0 009.996-1.466l.034 3.33z"/></g></g><path d="M562.412 560.071c-19.419 0-38.462-.782-57.005-2.29-14.795-1.198-27.766 10.108-27.766 24.978v273.633c0 15.82 11.946 29.315 27.766 30.589a704.283 704.283 0 0057.005 2.298c192.699 0 348.91-76.93 348.91-171.835V388.237c.026 94.905-156.211 171.834-348.91 171.834z" fill="#C9E2F4" opacity=".6"/><g opacity=".66"><g opacity=".7" style="mix-blend-mode:overlay" fill="#303D8B"><path d="M657.478 768.564l-.516-2.398a333.81 333.81 0 01-15.72 3.048l.409 2.414c5.306-.9 10.62-1.932 15.827-3.064zM609.787 815.704l.216 2.44c9.572-.833 18.544-1.898 27.449-3.33l-.383-2.423c-8.88 1.432-17.802 2.506-27.282 3.313zM562.412 817.536c-4.515 0-9.008-.044-13.479-.133l-.05 2.448c4.487.088 8.997.133 13.529.133 8.163 0 15.644-.125 22.883-.383l-.083-2.448c-7.214.258-14.67.383-22.8.383zM504.732 817.636a673.378 673.378 0 0024.108 1.557l.142-2.44c-8.023-.374-16.103-.899-24.025-1.548l-.225 2.431zM622.282 803.824l.284 2.43a352.91 352.91 0 0034.987-5.827l-.533-2.39c-11.33 2.49-22.684 4.371-34.738 5.787zM572.991 806.82v2.499c11.113-.167 21.284-.592 31.114-1.3l-.183-2.447a560.721 560.721 0 01-30.93 1.249zM553.415 806.846a703.93 703.93 0 01-48.483-2.273l-.2 2.44a707.783 707.783 0 0048.65 2.28l.033-2.447zM657.487 789.82l-.533-2.39a344.098 344.098 0 01-24.833 4.48l.35 2.422a346.26 346.26 0 0025.016-4.512zM562.412 796.272a706.28 706.28 0 01-57.48-2.331l-.2 2.44a710.583 710.583 0 0057.68 2.339c16.585 0 31.305-.533 44.984-1.624l-.192-2.439c-13.612 1.082-28.24 1.615-44.792 1.615zM656.962 776.79a352.51 352.51 0 01-38.745 6.203l.258 2.44a354.56 354.56 0 0039.003-6.254l-.516-2.389zM593.126 787.389L593 784.94c-9.538.466-19.543.7-30.564.7a706.64 706.64 0 01-16.753-.2l-.058 2.455c5.615.125 11.263.192 16.81.192 11.038 0 21.077-.233 30.69-.7zM525.708 784.7a720.777 720.777 0 01-20.776-1.391l-.2 2.44a674.06 674.06 0 0020.826 1.39l.15-2.44zM625.506 771.536c-18.943 2.373-38.994 3.472-63.094 3.472v2.498c24.208 0 44.35-1.116 63.402-3.497l-.308-2.473zM539.57 774.65a709.077 709.077 0 01-34.638-1.973l-.2 2.44a713.003 713.003 0 0034.763 1.981l.075-2.448z"/></g><path d="M656.437 743.37c-27.765 6.07-56.755 8.784-94.017 8.784-19.16 0-38.462-.782-57.28-2.323v7.36a709.098 709.098 0 0057.28 2.306c37.104 0 66.193-2.664 94.017-8.617v-7.51zM725.696 837.443c-7.872 1.881-11.929 2.756-20.376 4.437v-19.915c8.43-1.607 12.496-2.497 20.343-4.346l.033 19.824zM754.428 829.417c-7.164 2.331-10.83 3.405-18.427 5.428l-.075-40.67c7.597-2.066 11.271-3.19 18.46-5.63.011 13.622.025 27.245.042 40.872zM780.96 819.351c-6.714 2.956-10.113 4.304-17.094 6.835l-.05-77.054c7.023-2.756 10.447-4.23 17.194-7.368l-.05 77.587zM806.21 806.58c-6.498 3.746-9.755 5.47-16.37 8.675l.075-59.612c6.665-3.33 9.897-5.046 16.403-8.726l-.108 59.662zM831.101 790.452c-6.531 4.704-9.763 6.878-16.244 10.932.06-33.62.116-67.241.166-100.866 6.448-3.763 9.655-5.703 16.078-9.65v99.584zM798.462 542.446c-33.03 14.295-65.81 26.834-101.314 33.46v-4.62c35.546-6.66 68.226-19.357 101.206-33.769.042 1.99.067 2.956.108 4.929zM882.833 489.652c-20.06 16.743-31.714 24.511-55.922 38.124-.05-2.007-.075-3.006-.117-4.996 24.208-13.67 35.87-21.447 55.964-38.04.033 1.957.042 2.94.075 4.912zM767.881 567.64a415.32 415.32 0 01-70.733 19.815v-2.773a411.628 411.628 0 0070.683-19.915c.017 1.149.034 1.724.05 2.872zM834.2 536.318c-16.994 9.924-25.983 14.42-44.06 22.313 0-1.174 0-1.765-.066-2.939 18.077-7.934 27.065-12.489 44.06-22.396.024 1.215.04 1.815.066 3.022zM908.082 477.255c-15.67 17.784-33.913 33.178-53.598 46.341 0-1.207-.05-1.815-.075-3.022a279.8 279.8 0 0053.673-46.091v2.772zM730.161 588.778c-13.495 3.622-20.168 5.12-33.013 7.494v-2.765a334.777 334.777 0 0032.98-7.493c.017 1.083.017 1.649.033 2.764zM868.138 523.521c-36.762 25.327-73.8 43.544-115.793 58.672 0-1.14 0-1.665-.05-2.84 41.936-15.219 79.006-33.544 115.793-58.837l.05 3.005zM908.082 486.03a188.7 188.7 0 01-22.042 22.73v-2.947a191.476 191.476 0 0022.076-22.555l-.034 2.773zM813.399 566.79c-37.62 17.035-75.482 30.805-116.251 38.224v-2.765c40.769-7.493 78.589-21.338 116.184-38.448.025 1.19.042 1.799.067 2.99zM908.082 494.814c-19.46 23.837-43.9 43.294-70.367 58.805 0-1.207 0-1.807-.066-3.014 26.407-15.552 50.865-34.868 70.433-58.563v2.772zM749.305 601.234c-21.343 6.427-32.048 8.908-52.157 12.555v-2.773c20.093-3.638 30.822-6.136 52.115-12.621l.042 2.839zM852.119 554.285c-24.992 16.51-52.199 29.498-80.38 39.556 0-1.158 0-1.74-.059-2.89 28.174-10.132 55.372-23.178 80.38-39.688.025 1.215.034 1.815.059 3.022zM908.082 503.59c-12.67 16.276-20.268 23.611-36.845 36.808 0-1.2 0-1.807-.05-3.006 16.586-13.155 24.158-20.448 36.895-36.575v2.773zM717.316 618.493c-8.189 1.832-12.238 2.64-20.168 4.08V619.8c7.922-1.44 11.962-2.256 20.151-4.088.008 1.116.008 1.674.017 2.781zM798.479 592.683c-23.325 9.991-35.47 13.97-59.038 20.357v-2.814c23.55-6.428 35.738-10.458 59.021-20.49a69.605 69.605 0 00.017 2.947zM865.064 554.826c-16.66 12.589-25.874 18.084-44.818 27.7 0-1.199-.041-1.798-.075-2.99 18.952-9.657 28.14-15.16 44.835-27.724.025 1.207.033 1.849.058 3.014zM768.74 613.281a522.042 522.042 0 01-71.592 18.067v-2.756a515.182 515.182 0 0071.541-18.175c.017 1.132.025 1.707.05 2.864zM835.266 584.091c-16.952 9.675-25.95 13.82-44.151 21.03 0-1.173 0-1.756-.058-2.93 18.168-7.251 27.165-11.431 44.15-21.114.018 1.207.034 1.807.06 3.014zM908.082 521.19a215.364 215.364 0 01-52.631 50.304c0-1.207-.042-1.815-.067-3.022 20.126-13.704 38.187-30.455 52.698-50.054v2.772zM732.527 632.663c-14.437 3.505-21.6 4.996-35.38 7.494v-2.773c13.763-2.498 20.919-3.963 35.347-7.493.016 1.09.025 1.648.033 2.772z" fill="#303D8B"/><path d="M868.98 571.145c-36.013 25.51-72.059 41.995-113.977 55.574 0-1.14 0-1.707-.05-2.848 41.877-13.67 77.956-30.255 113.968-55.732.025 1.166.042 1.765.058 3.006zM908.082 512.365c-8.78 11.698-13.778 17.093-24.591 27.092V536.5c10.83-9.949 15.828-15.32 24.633-26.908l-.042 2.772z" fill="#303D8B"/><path d="M704.545 667.132a22.849 22.849 0 014.265-1.898 16.57 16.57 0 017.564-.733l-7.697 15.37-1.666-5.088-2.466-7.651z" fill="#FEB701"/><path d="M690.883 692.142a16.068 16.068 0 01-.266-2.914c0-7.493 4.781-15.819 11.787-20.756l4.565 14.08-10.912 6.51-5.174 3.08z" fill="#0A1658"/><path d="M708.086 700.968c-1.762.58-3.602.883-5.457.899-5.223 0-9.288-2.698-11.038-7.277l16.178-9.65 1.625-.974.833-1.573 8.638-17.276c4.682 1.723 7.456 6.07 7.456 11.856-.067 10-8.239 20.764-18.235 23.995z" fill="#FEB701"/><path d="M811.025 632.855a23.332 23.332 0 014.265-1.89 16.828 16.828 0 017.564-.741l-7.697 15.378-1.725-5.304-2.407-7.443z" fill="#0A1658"/><path d="M797.371 657.865a15.228 15.228 0 01-.266-2.914c0-7.493 4.781-15.819 11.779-20.747l4.565 14.078-4.74 2.823-11.338 6.76z" fill="#FEB701"/><path d="M814.54 666.699c-1.758.58-3.596.883-5.448.9-5.232 0-9.297-2.707-11.038-7.286l16.17-9.641 1.666-.983.383-.765 9.047-18.076c4.681 1.715 7.447 6.07 7.447 11.848-.033 10.04-8.197 20.764-18.227 24.003zM778.96 664.334l-14.936.333h-.125l9.589-16.102a10.57 10.57 0 012.499 1.84c3.107 3.04 4.107 7.843 2.974 13.93z" fill="#FEB701"/><path d="M751.104 655.343c4.723-5.112 10.88-8.16 16.47-8.16a13.527 13.527 0 013.631.475l-6.564 11.015-3.399 5.711-7.939-3.496-4.881-2.157a29.268 29.268 0 012.682-3.388z" fill="#0A1658"/><path d="M778.294 666.799a28.038 28.038 0 01-5.922 9.75c-4.724 5.111-10.888 8.167-16.486 8.167a11.666 11.666 0 01-8.44-3.239c-4.58-4.546-4.672-12.921-.324-20.648l12.854 5.678 1.516.666H764.108l14.186-.374z" fill="#FEB701"/></g></g></g></svg>